<?xml version="1.0" encoding="UTF-8" standalone="no"?>
<!-- Created with Inkscape (http://www.inkscape.org/) -->

<svg
   version="1.1"
   id="svg1"
   width="2666.6667"
   height="2666.6667"
   viewBox="0 0 2666.6667 2666.6667"
   sodipodi:docname="vecteezy_polar-bear-vector-logo-icon-illustration_7318178.eps"
   xmlns:inkscape="http://www.inkscape.org/namespaces/inkscape"
   xmlns:sodipodi="http://sodipodi.sourceforge.net/DTD/sodipodi-0.dtd"
   xmlns="http://www.w3.org/2000/svg"
   xmlns:svg="http://www.w3.org/2000/svg">
  <defs
     id="defs1" />
  <sodipodi:namedview
     id="namedview1"
     pagecolor="#ffffff"
     bordercolor="#000000"
     borderopacity="0.25"
     inkscape:showpageshadow="2"
     inkscape:pageopacity="0.0"
     inkscape:pagecheckerboard="0"
     inkscape:deskcolor="#d1d1d1">
    <inkscape:page
       x="0"
       y="0"
       inkscape:label="1"
       id="page1"
       width="2666.6667"
       height="2666.6667"
       margin="0"
       bleed="0" />
  </sodipodi:namedview>
  <g
     id="g1"
     inkscape:groupmode="layer"
     inkscape:label="1">
    <g
       id="group-R5">
      <path
         id="path2"
         d="M 20000,0 H 0 V 20000 H 20000 V 0"
         style="fill:#f5f0e8;fill-opacity:1;fill-rule:nonzero;stroke:none"
         transform="matrix(0.13333333,0,0,-0.13333333,0,2666.6667)" />
      <path
         id="path3"
         d="m 9845.69,7727.3 c -495.66,-783.4 -147.06,-1723.1 -572.77,-2523.2 76.92,-11.6 154.43,-21.4 232.5,-29.3 176.57,162 364.67,395.7 501.28,706.3 327.7,745.1 718.6,379.4 718.6,379.4 -270.2,965.8 -879.61,1466.8 -879.61,1466.8"
         style="fill:#a7a5a6;fill-opacity:1;fill-rule:nonzero;stroke:none"
         transform="matrix(0.13333333,0,0,-0.13333333,0,2666.6667)" />
      <path
         id="path4"
         d="m 9845.69,7727.3 c -643.5,529.5 -2099.57,431.6 -2741.81,995.6 -287.35,252.4 -420.78,998.2 -230.08,1369.7 513.03,-9.5 1343.37,42.6 2125.64,617.8 782.25,575.2 1533.96,420.6 1902.16,420.6 353.7,258.8 863.6,485.2 1187.7,304.9 309.9,-172.5 163.9,-638.5 -75.9,-771.5 949.2,-336.5 2007.2,-1248.7 2574.3,-2215.9 162.1,483.5 250,1001 250,1539 0,2671.8 -2165.9,4837.7 -4837.7,4837.7 -2671.8,0 -4837.72,-2165.9 -4837.72,-4837.7 0,-2424.6 1783.79,-4432.6 4110.63,-4783.4 425.72,800.1 77.12,1739.8 572.78,2523.2"
         style="fill:#231f20;fill-opacity:1;fill-rule:nonzero;stroke:none"
         transform="matrix(0.13333333,0,0,-0.13333333,0,2666.6667)" />
    </g>
  </g>
</svg>
